<svg width="51" height="51" viewBox="0 0 51 51" fill="none" xmlns="http://www.w3.org/2000/svg">
<path d="M21.1111 37.3454V33.0802C21.1111 31.9915 22.0002 31.1089 23.0969 31.1089H27.106C27.6327 31.1089 28.1378 31.3165 28.5102 31.6863C28.8826 32.056 29.0919 32.5574 29.0919 33.0802V37.3454C29.0885 37.798 29.2673 38.2333 29.5886 38.5545C29.9098 38.8757 30.3469 39.0564 30.8029 39.0564H33.5381C34.8155 39.0597 36.0418 38.5582 36.9462 37.6627C37.8507 36.7671 38.359 35.5511 38.359 34.2829V22.1322C38.359 21.1078 37.9016 20.1361 37.1101 19.4789L27.8054 12.1017C26.1869 10.8082 23.8678 10.85 22.2976 12.2009L13.2053 19.4789C12.3764 20.1168 11.8809 21.0913 11.8564 22.1322V34.2705C11.8564 36.9137 14.0148 39.0564 16.6774 39.0564H19.3501C20.2971 39.0564 21.0668 38.2979 21.0736 37.3578L21.1111 37.3454Z" fill="url(#paint0_linear_305_20)"/>
<defs>
<linearGradient id="paint0_linear_305_20" x1="11.8564" y1="25.1077" x2="38.359" y2="25.1077" gradientUnits="userSpaceOnUse">
<stop stop-color="#2B79FF"/>
<stop offset="1" stop-color="#0014C6"/>
</linearGradient>
</defs>
</svg>
