<svg width="51" height="51" viewBox="0 0 51 51" fill="none" xmlns="http://www.w3.org/2000/svg">
<path d="M25.1358 11.8051C33.0587 11.8051 39.0566 18.301 39.0566 25.7329C39.0566 34.3522 32.0265 39.7025 25.1079 39.7025C22.8203 39.7025 20.2816 39.0879 18.2451 37.8865C17.5337 37.4534 16.9339 37.1321 16.1668 37.3836L13.3491 38.2218C12.6377 38.4453 11.9961 37.8865 12.2053 37.1321L13.1399 34.0029C13.2933 33.5699 13.2654 33.1089 13.0423 32.7456C11.8427 30.5384 11.1592 28.1217 11.1592 25.7748C11.1592 18.4267 17.0316 11.8051 25.1358 11.8051ZM31.5104 24.0006C30.52 24.0006 29.7249 24.7969 29.7249 25.7887C29.7249 26.7666 30.52 27.5769 31.5104 27.5769C32.5007 27.5769 33.2958 26.7666 33.2958 25.7887C33.2958 24.7969 32.5007 24.0006 31.5104 24.0006ZM25.08 24.0006C24.1036 23.9867 23.2946 24.7969 23.2946 25.7748C23.2946 26.7666 24.0896 27.5629 25.08 27.5769C26.0704 27.5769 26.8654 26.7666 26.8654 25.7887C26.8654 24.7969 26.0704 24.0006 25.08 24.0006ZM18.6496 24.0006C17.6593 24.0006 16.8642 24.7969 16.8642 25.7887C16.8642 26.7666 17.6732 27.5769 18.6496 27.5769C19.64 27.5629 20.4351 26.7666 20.4351 25.7887C20.4351 24.7969 19.64 24.0006 18.6496 24.0006Z" fill="#444444"/>
</svg>
