<svg width="51" height="51" viewBox="0 0 51 51" fill="none" xmlns="http://www.w3.org/2000/svg">
<path d="M26.1082 11.3745C27.163 11.3745 28.1181 11.9603 28.6456 12.8251C28.9021 13.2436 29.0732 13.7597 29.0304 14.3037C29.0019 14.7222 29.1302 15.1406 29.3583 15.5312C30.0853 16.7168 31.6961 17.1632 32.9506 16.4937C34.3618 15.6846 36.1437 16.1728 36.9562 17.5538L37.9113 19.1997C38.7381 20.5806 38.2819 22.3521 36.8564 23.1472C35.6448 23.8586 35.2171 25.4348 35.9441 26.6344C36.1722 27.011 36.4288 27.3318 36.8279 27.5271C37.3268 27.7921 37.7117 28.2106 37.9826 28.629C38.51 29.4939 38.4672 30.554 37.9541 31.4885L36.9562 33.1624C36.4288 34.0551 35.4452 34.613 34.4331 34.613C33.9342 34.613 33.3782 34.4736 32.9221 34.1946C32.5514 33.9575 32.1238 33.8738 31.6676 33.8738C30.2564 33.8738 29.0732 35.0315 29.0304 36.4124C29.0304 38.0165 27.719 39.2719 26.0797 39.2719H24.141C22.4874 39.2719 21.1759 38.0165 21.1759 36.4124C21.1474 35.0315 19.9643 33.8738 18.553 33.8738C18.0826 33.8738 17.655 33.9575 17.2986 34.1946C16.8424 34.4736 16.2722 34.613 15.7875 34.613C14.7612 34.613 13.7776 34.0551 13.2502 33.1624L12.2666 31.4885C11.7391 30.5819 11.7106 29.4939 12.2381 28.629C12.4661 28.2106 12.8938 27.7921 13.3785 27.5271C13.7776 27.3318 14.0342 27.011 14.2765 26.6344C14.9893 25.4348 14.5616 23.8586 13.3499 23.1472C11.9387 22.3521 11.4825 20.5806 12.2951 19.1997L13.2502 17.5538C14.0769 16.1728 15.8446 15.6846 17.2701 16.4937C18.5103 17.1632 20.1211 16.7168 20.8481 15.5312C21.0762 15.1406 21.2044 14.7222 21.1759 14.3037C21.1474 13.7597 21.3042 13.2436 21.5751 12.8251C22.1025 11.9603 23.0576 11.4024 24.0982 11.3745H26.1082ZM25.1246 21.3897C22.8865 21.3897 21.0762 23.1472 21.0762 25.3371C21.0762 27.5271 22.8865 29.2707 25.1246 29.2707C27.3626 29.2707 29.1302 27.5271 29.1302 25.3371C29.1302 23.1472 27.3626 21.3897 25.1246 21.3897Z" fill="#444444"/>
</svg>
