<svg width="51" height="51" viewBox="0 0 51 51" fill="none" xmlns="http://www.w3.org/2000/svg">
<path d="M19.4166 27.5885C21.3833 27.5885 22.9596 29.18 22.9596 31.1608V35.9159C22.9596 37.8826 21.3833 39.4868 19.4166 39.4868H14.7019C12.7491 39.4868 11.1589 37.8826 11.1589 35.9159V31.1608C11.1589 29.18 12.7491 27.5885 14.7019 27.5885H19.4166ZM35.5135 27.5885C37.4664 27.5885 39.0565 29.18 39.0565 31.1608V35.9159C39.0565 37.8826 37.4664 39.4868 35.5135 39.4868H30.7989C28.8321 39.4868 27.2559 37.8826 27.2559 35.9159V31.1608C27.2559 29.18 28.8321 27.5885 30.7989 27.5885H35.5135ZM19.4166 11.5897C21.3833 11.5897 22.9596 13.1938 22.9596 15.162V19.9171C22.9596 21.8978 21.3833 23.488 19.4166 23.488H14.7019C12.7491 23.488 11.1589 21.8978 11.1589 19.9171V15.162C11.1589 13.1938 12.7491 11.5897 14.7019 11.5897H19.4166ZM35.5135 11.5897C37.4664 11.5897 39.0565 13.1938 39.0565 15.162V19.9171C39.0565 21.8978 37.4664 23.488 35.5135 23.488H30.7989C28.8321 23.488 27.2559 21.8978 27.2559 19.9171V15.162C27.2559 13.1938 28.8321 11.5897 30.7989 11.5897H35.5135Z" fill="#444444"/>
</svg>
