<svg width="85" height="103" viewBox="0 0 85 103" fill="none" xmlns="http://www.w3.org/2000/svg">
<path d="M40.5884 30.7285C90.3033 30.7285 90.3033 96.5185 40.5884 96.5185" stroke="white" stroke-width="12.3927"/>
<path d="M44.2862 7.00098C-5.42872 7.00098 -5.42872 72.0206 44.2862 72.0206" stroke="white" stroke-width="12.3927"/>
<path d="M31.1898 31.6533C23.7942 31.6533 23.7942 40.8978 31.1898 40.8978" stroke="white" stroke-width="3.0815"/>
<path d="M56.9601 65.7041C58.0985 65.7041 59.0932 65.9681 59.9444 66.496C60.7956 67.0239 61.452 67.7678 61.9135 68.7277C62.3852 69.6755 62.6211 70.7734 62.6211 72.0212C62.6211 73.257 62.3852 74.3548 61.9135 75.3147C61.452 76.2746 60.7905 77.0184 59.9291 77.5464C59.0779 78.0743 58.0882 78.3383 56.9601 78.3383H52.9144V65.7041H56.9601ZM56.7909 75.6746C57.7857 75.6746 58.56 75.3567 59.1138 74.7208C59.6675 74.0849 59.9444 73.185 59.9444 72.0212C59.9444 70.8573 59.6675 69.9515 59.1138 69.3036C58.56 68.6557 57.7857 68.3317 56.7909 68.3317H55.5449V75.6746H56.7909Z" fill="white"/>
<mask id="path-5-outside-1_220_188" maskUnits="userSpaceOnUse" x="39.0488" y="45.1328" width="13.0145" height="13" fill="black">
<rect fill="white" x="39.0488" y="45.1328" width="13.0145" height="13"/>
<path d="M48.1144 57.1328L46.7669 55.772C46.2645 56.2946 45.7276 56.6841 45.1559 56.9405C44.5843 57.187 43.9385 57.3103 43.2187 57.3103C42.5087 57.3103 41.8775 57.1821 41.325 56.9257C40.7824 56.6693 40.3579 56.3045 40.0517 55.8312C39.7554 55.3579 39.6068 54.8057 39.6061 54.1746C39.6053 53.4547 39.8068 52.8236 40.2105 52.2813C40.624 51.7291 41.23 51.2952 42.0283 50.9797C41.7124 50.605 41.4852 50.2598 41.3468 49.9443C41.2084 49.6287 41.139 49.2836 41.1386 48.9089C41.1381 48.475 41.2461 48.0855 41.4627 47.7404C41.6891 47.3854 42.0092 47.1093 42.4232 46.9121C42.8371 46.7149 43.3152 46.6163 43.8576 46.6163C44.3901 46.6163 44.8536 46.7198 45.2483 46.9269C45.643 47.134 45.9391 47.4249 46.1367 47.7996C46.3344 48.1644 46.4236 48.5736 46.4044 49.0272H45.0584C45.0678 48.6229 44.954 48.3074 44.7171 48.0806C44.4802 47.8439 44.1744 47.7256 43.7996 47.7256C43.4052 47.7256 43.0849 47.839 42.8386 48.0658C42.6022 48.2827 42.4842 48.5638 42.4846 48.9089C42.4849 49.2047 42.5641 49.4907 42.7222 49.7668C42.8901 50.0429 43.1666 50.3831 43.5516 50.7874L46.6316 53.8787L46.8974 53.4646L47.9013 51.7784H49.3509L48.1403 53.8787C47.973 54.1746 47.7762 54.4852 47.5497 54.8106L49.8745 57.1328H48.1144ZM43.2174 56.1566C43.7499 56.1566 44.228 56.053 44.6518 55.846C45.0854 55.6389 45.4943 55.3184 45.8784 54.8845L42.8428 51.8376C41.5812 52.3207 40.9509 53.0849 40.9521 54.1302C40.9527 54.712 41.1603 55.1952 41.5749 55.5797C41.9994 55.9643 42.5469 56.1566 43.2174 56.1566Z"/>
</mask>
<path d="M48.1144 57.1328L46.7669 55.772C46.2645 56.2946 45.7276 56.6841 45.1559 56.9405C44.5843 57.187 43.9385 57.3103 43.2187 57.3103C42.5087 57.3103 41.8775 57.1821 41.325 56.9257C40.7824 56.6693 40.3579 56.3045 40.0517 55.8312C39.7554 55.3579 39.6068 54.8057 39.6061 54.1746C39.6053 53.4547 39.8068 52.8236 40.2105 52.2813C40.624 51.7291 41.23 51.2952 42.0283 50.9797C41.7124 50.605 41.4852 50.2598 41.3468 49.9443C41.2084 49.6287 41.139 49.2836 41.1386 48.9089C41.1381 48.475 41.2461 48.0855 41.4627 47.7404C41.6891 47.3854 42.0092 47.1093 42.4232 46.9121C42.8371 46.7149 43.3152 46.6163 43.8576 46.6163C44.3901 46.6163 44.8536 46.7198 45.2483 46.9269C45.643 47.134 45.9391 47.4249 46.1367 47.7996C46.3344 48.1644 46.4236 48.5736 46.4044 49.0272H45.0584C45.0678 48.6229 44.954 48.3074 44.7171 48.0806C44.4802 47.8439 44.1744 47.7256 43.7996 47.7256C43.4052 47.7256 43.0849 47.839 42.8386 48.0658C42.6022 48.2827 42.4842 48.5638 42.4846 48.9089C42.4849 49.2047 42.5641 49.4907 42.7222 49.7668C42.8901 50.0429 43.1666 50.3831 43.5516 50.7874L46.6316 53.8787L46.8974 53.4646L47.9013 51.7784H49.3509L48.1403 53.8787C47.973 54.1746 47.7762 54.4852 47.5497 54.8106L49.8745 57.1328H48.1144ZM43.2174 56.1566C43.7499 56.1566 44.228 56.053 44.6518 55.846C45.0854 55.6389 45.4943 55.3184 45.8784 54.8845L42.8428 51.8376C41.5812 52.3207 40.9509 53.0849 40.9521 54.1302C40.9527 54.712 41.1603 55.1952 41.5749 55.5797C41.9994 55.9643 42.5469 56.1566 43.2174 56.1566Z" fill="white"/>
<path d="M48.1144 57.1328L47.7317 57.5117L47.8901 57.6716H48.115L48.1144 57.1328ZM46.7669 55.772L47.1495 55.3931L46.7607 55.0005L46.3782 55.3984L46.7669 55.772ZM45.1559 56.9405L45.3698 57.4354L45.3769 57.4322L45.1559 56.9405ZM41.325 56.9257L41.0952 57.4129L41.0986 57.4144L41.325 56.9257ZM40.0517 55.8312L39.5951 56.1168L39.5994 56.1235L40.0517 55.8312ZM40.2105 52.2813L39.7791 51.958L39.7781 51.9593L40.2105 52.2813ZM42.0283 50.9797L42.2269 51.4808L42.9232 51.2056L42.4401 50.6326L42.0283 50.9797ZM41.3468 49.9443L40.8534 50.1602L41.3468 49.9443ZM41.4627 47.7404L41.0083 47.4503L41.0062 47.4537L41.4627 47.7404ZM42.4232 46.9121L42.191 46.4256L42.191 46.4256L42.4232 46.9121ZM45.2483 46.9269L45.4982 46.4498L45.4982 46.4498L45.2483 46.9269ZM46.1367 47.7996L45.6602 48.0505L45.663 48.0558L46.1367 47.7996ZM46.4044 49.0272L46.405 49.566H46.9208L46.9427 49.0506L46.4044 49.0272ZM45.0584 49.0272L44.5197 49.0141L44.5068 49.566H45.059L45.0584 49.0272ZM44.7171 48.0806L44.3364 48.4617L44.3447 48.4696L44.7171 48.0806ZM42.8386 48.0658L43.2031 48.463L43.2038 48.4623L42.8386 48.0658ZM42.7222 49.7668L42.2546 50.0341L42.2582 50.0403L42.2619 50.0464L42.7222 49.7668ZM43.5516 50.7874L43.1615 51.1588L43.1701 51.1675L43.5516 50.7874ZM46.6316 53.8787L46.2501 54.2588L46.7234 54.7338L47.0852 54.1701L46.6316 53.8787ZM46.8974 53.4646L47.351 53.756L47.3558 53.7484L47.3605 53.7406L46.8974 53.4646ZM47.9013 51.7784L47.9007 51.2396H47.5947L47.4383 51.5024L47.9013 51.7784ZM49.3509 51.7784L49.8178 52.0478L50.2836 51.2396H49.3503L49.3509 51.7784ZM48.1403 53.8787L47.6734 53.6093L47.6713 53.6131L48.1403 53.8787ZM47.5497 54.8106L47.1073 54.5025L46.8498 54.8726L47.1691 55.1916L47.5497 54.8106ZM49.8745 57.1328L49.8751 57.6716H51.1759L50.2551 56.7518L49.8745 57.1328ZM44.6518 55.846L44.4192 55.3597L44.4148 55.3618L44.6518 55.846ZM45.8784 54.8845L46.282 55.2419L46.6173 54.8632L46.2599 54.5045L45.8784 54.8845ZM42.8428 51.8376L43.2243 51.4575L42.9768 51.2091L42.6496 51.3344L42.8428 51.8376ZM41.5749 55.5797L41.2087 55.9746L41.2134 55.9788L41.5749 55.5797ZM48.1144 57.1328L48.497 56.7539L47.1495 55.3931L46.7669 55.772L46.3842 56.1509L47.7317 57.5117L48.1144 57.1328ZM46.7669 55.772L46.3782 55.3984C45.9163 55.879 45.4346 56.2248 44.935 56.4488L45.1559 56.9405L45.3769 57.4322C46.0206 57.1435 46.6128 56.7103 47.1555 56.1456L46.7669 55.772ZM45.1559 56.9405L44.9421 56.4457C44.4474 56.659 43.8759 56.7715 43.2181 56.7715L43.2187 57.3103L43.2193 57.8491C44.0011 57.8491 44.7211 57.715 45.3697 57.4353L45.1559 56.9405ZM43.2187 57.3103L43.2181 56.7715C42.5735 56.7715 42.0218 56.6553 41.5513 56.437L41.325 56.9257L41.0986 57.4144C41.7331 57.7089 42.4439 57.8491 43.2193 57.8491L43.2187 57.3103ZM41.325 56.9257L41.5547 56.4386C41.0968 56.2223 40.7521 55.9223 40.504 55.5389L40.0517 55.8312L39.5994 56.1235C39.9638 56.6867 40.4679 57.1164 41.0952 57.4129L41.325 56.9257ZM40.0517 55.8312L40.5083 55.5456C40.2723 55.1687 40.1456 54.7182 40.1449 54.1746H39.6061H39.0673C39.0681 54.8931 39.2384 55.547 39.5951 56.1167L40.0517 55.8312ZM39.6061 54.1746H40.1449C40.1443 53.5629 40.313 53.0465 40.6428 52.6033L40.2105 52.2813L39.7781 51.9593C39.3006 52.6008 39.0664 53.3466 39.0673 54.1746H39.6061ZM40.2105 52.2813L40.6419 52.6046C40.9827 52.1494 41.4986 51.7686 42.2269 51.4808L42.0283 50.9797L41.8298 50.4785C40.9613 50.8218 40.2653 51.3088 39.7791 51.958L40.2105 52.2813ZM42.0283 50.9797L42.4401 50.6326C42.1446 50.2822 41.9511 49.9812 41.8402 49.7283L41.3468 49.9443L40.8534 50.1602C41.0193 50.5385 41.2801 50.9277 41.6166 51.3267L42.0283 50.9797ZM41.3468 49.9443L41.8402 49.7283C41.7342 49.4867 41.6777 49.2159 41.6774 48.9089H41.1386H40.5997C40.6002 49.3513 40.6826 49.7708 40.8534 50.1602L41.3468 49.9443ZM41.1386 48.9089H41.6774C41.677 48.5697 41.76 48.2808 41.9192 48.0271L41.4627 47.7404L41.0062 47.4537C40.7322 47.8903 40.5991 48.3804 40.5997 48.9089H41.1386ZM41.4627 47.7404L41.917 48.0305C42.0844 47.768 42.324 47.5564 42.6554 47.3986L42.4232 46.9121L42.191 46.4256C41.6944 46.6622 41.2937 47.0028 41.0083 47.4503L41.4627 47.7404ZM42.4232 46.9121L42.6554 47.3986C42.9849 47.2415 43.3815 47.1551 43.8582 47.1551L43.8576 46.6163L43.857 46.0775C43.249 46.0775 42.6892 46.1882 42.191 46.4256L42.4232 46.9121ZM43.8576 46.6163L43.8582 47.1551C44.3204 47.1551 44.6947 47.2446 44.9984 47.4039L45.2483 46.9269L45.4982 46.4498C45.0125 46.195 44.4598 46.0775 43.857 46.0775L43.8576 46.6163ZM45.2483 46.9269L44.9984 47.4039C45.3017 47.5631 45.5162 47.7775 45.6602 48.0505L46.1367 47.7996L46.6133 47.5486C46.362 47.0722 45.9842 46.7048 45.4982 46.4498L45.2483 46.9269ZM46.1367 47.7996L45.663 48.0558C45.8099 48.3269 45.8815 48.638 45.866 49.0038L46.4044 49.0272L46.9427 49.0506C46.9656 48.5092 46.8588 48.0019 46.6105 47.5433L46.1367 47.7996ZM46.4044 49.0272L46.4038 48.4884H45.0578L45.0584 49.0272L45.059 49.566H46.405L46.4044 49.0272ZM45.0584 49.0272L45.597 49.0404C45.6091 48.5228 45.4607 48.0469 45.0895 47.6916L44.7171 48.0806L44.3447 48.4696C44.4474 48.5679 44.5265 48.7231 44.5197 49.0141L45.0584 49.0272ZM44.7171 48.0806L45.0977 47.6996C44.7471 47.3494 44.298 47.1868 43.799 47.1868L43.7996 47.7256L43.8002 48.2644C44.0507 48.2644 44.2133 48.3385 44.3365 48.4616L44.7171 48.0806ZM43.7996 47.7256L43.799 47.1868C43.295 47.1868 42.8363 47.3351 42.4734 47.6693L42.8386 48.0658L43.2038 48.4623C43.3335 48.3429 43.5155 48.2644 43.8002 48.2644L43.7996 47.7256ZM42.8386 48.0658L42.4741 47.6686C42.1174 47.9959 41.9452 48.4254 41.9457 48.9089H42.4846H43.0234C43.0231 48.7021 43.087 48.5696 43.2031 48.463L42.8386 48.0658ZM42.4846 48.9089H41.9457C41.9462 49.3055 42.0536 49.6829 42.2546 50.0341L42.7222 49.7668L43.1897 49.4995C43.0746 49.2985 43.0236 49.104 43.0234 48.9089H42.4846ZM42.7222 49.7668L42.2619 50.0464C42.4593 50.3709 42.7662 50.7435 43.1616 51.1587L43.5516 50.7874L43.9416 50.416C43.567 50.0227 43.3209 49.7149 43.1824 49.4872L42.7222 49.7668ZM43.5516 50.7874L43.1701 51.1675L46.2501 54.2588L46.6316 53.8787L47.0131 53.4987L43.9331 50.4073L43.5516 50.7874ZM46.6316 53.8787L47.0852 54.1701L47.351 53.756L46.8974 53.4646L46.4438 53.1732L46.1781 53.5874L46.6316 53.8787ZM46.8974 53.4646L47.3605 53.7406L48.3644 52.0544L47.9013 51.7784L47.4383 51.5024L46.4344 53.1886L46.8974 53.4646ZM47.9013 51.7784L47.9019 52.3172H49.3515L49.3509 51.7784L49.3503 51.2396H47.9007L47.9013 51.7784ZM49.3509 51.7784L48.884 51.5089L47.6734 53.6093L48.1403 53.8787L48.6072 54.1482L49.8178 52.0478L49.3509 51.7784ZM48.1403 53.8787L47.6713 53.6131C47.5134 53.8922 47.3257 54.1886 47.1073 54.5025L47.5497 54.8106L47.9921 55.1187C48.2266 54.7817 48.4326 54.4569 48.6094 54.1444L48.1403 53.8787ZM47.5497 54.8106L47.1691 55.1916L49.494 57.5138L49.8745 57.1328L50.2551 56.7518L47.9303 54.4296L47.5497 54.8106ZM49.8745 57.1328L49.8739 56.594H48.1138L48.1144 57.1328L48.115 57.6716H49.8751L49.8745 57.1328ZM43.2174 56.1566L43.218 56.6954C43.8218 56.6954 44.3825 56.5775 44.8888 56.3301L44.6518 55.846L44.4148 55.3618C44.0736 55.5286 43.6779 55.6178 43.2168 55.6178L43.2174 56.1566ZM44.6518 55.846L44.8844 56.3322C45.3951 56.0884 45.8598 55.7189 46.282 55.2419L45.8784 54.8845L45.4748 54.5271C45.1289 54.9179 44.7758 55.1894 44.4192 55.3597L44.6518 55.846ZM45.8784 54.8845L46.2599 54.5045L43.2243 51.4575L42.8428 51.8376L42.4613 52.2176L45.4969 55.2646L45.8784 54.8845ZM42.8428 51.8376L42.6496 51.3344C41.9622 51.5976 41.4 51.9548 41.008 52.43C40.6087 52.9142 40.4126 53.4897 40.4133 54.1302H40.9521H41.4909C41.4904 53.7254 41.6088 53.3962 41.8397 53.1162C42.0781 52.8272 42.4618 52.5607 43.036 52.3408L42.8428 51.8376ZM40.9521 54.1302H40.4133C40.4141 54.8568 40.6806 55.4847 41.2087 55.9746L41.5749 55.5797L41.9411 55.1849C41.6401 54.9056 41.4914 54.5671 41.4909 54.1302H40.9521ZM41.5749 55.5797L41.2134 55.9788C41.7538 56.4684 42.438 56.6954 43.218 56.6954L43.2174 56.1566L43.2168 55.6178C42.6557 55.6178 42.245 55.4602 41.9365 55.1806L41.5749 55.5797Z" fill="white" mask="url(#path-5-outside-1_220_188)"/>
</svg>
