<svg width="30" height="30" viewBox="0 0 30 30" fill="none" xmlns="http://www.w3.org/2000/svg">
<circle cx="15" cy="15" r="14.5" fill="white" stroke="url(#paint0_linear_103_92)"/>
<mask id="path-2-inside-1_103_92" fill="white">
<path d="M21.5 15C21.5 15.5625 21.0312 16.0312 20.5 16.0312H16V20.5312C16 21.0625 15.5312 21.5 15 21.5C14.4375 21.5 14 21.0625 14 20.5312V16.0312H9.5C8.9375 16.0312 8.5 15.5625 8.5 15C8.5 14.4688 8.9375 14.0312 9.5 14.0312H14V9.53125C14 8.96875 14.4375 8.5 15 8.5C15.5312 8.5 16 8.96875 16 9.53125V14.0312H20.5C21.0312 14 21.5 14.4688 21.5 15Z"/>
</mask>
<path d="M21.5 15C21.5 15.5625 21.0312 16.0312 20.5 16.0312H16V20.5312C16 21.0625 15.5312 21.5 15 21.5C14.4375 21.5 14 21.0625 14 20.5312V16.0312H9.5C8.9375 16.0312 8.5 15.5625 8.5 15C8.5 14.4688 8.9375 14.0312 9.5 14.0312H14V9.53125C14 8.96875 14.4375 8.5 15 8.5C15.5312 8.5 16 8.96875 16 9.53125V14.0312H20.5C21.0312 14 21.5 14.4688 21.5 15Z" fill="url(#paint1_linear_103_92)"/>
<path d="M16 16.0312V15.0312H15V16.0312H16ZM14 16.0312H15V15.0312H14V16.0312ZM14 14.0312V15.0312H15V14.0312H14ZM16 14.0312H15V15.0312H16V14.0312ZM20.5 14.0312V15.0312H20.5294L20.5587 15.0295L20.5 14.0312ZM21.5 15H20.5C20.5 15.0007 20.5 15.0029 20.498 15.0076C20.4956 15.0132 20.4912 15.0203 20.4847 15.0269C20.4781 15.0337 20.4735 15.0357 20.4742 15.0354C20.4757 15.0347 20.4847 15.0312 20.5 15.0312V16.0312V17.0312C21.6033 17.0312 22.5 16.0948 22.5 15H21.5ZM20.5 16.0312V15.0312H16V16.0312V17.0312H20.5V16.0312ZM16 16.0312H15V20.5312H16H17V16.0312H16ZM16 20.5312H15C15 20.5239 15.0008 20.5166 15.0023 20.51C15.0037 20.5035 15.0056 20.4985 15.007 20.4953C15.0098 20.4891 15.0111 20.4892 15.0076 20.4925C15.0042 20.4959 14.9998 20.4986 14.9966 20.4999C14.9939 20.5011 14.995 20.5 15 20.5V21.5V22.5C16.0421 22.5 17 21.6553 17 20.5312H16ZM15 21.5V20.5C14.9947 20.5 14.9912 20.4995 14.9894 20.4991C14.9875 20.4988 14.9865 20.4984 14.9862 20.4983C14.9857 20.498 14.9866 20.4983 14.9884 20.5C14.99 20.5016 14.993 20.5052 14.9957 20.5114C14.9986 20.5183 15 20.5256 15 20.5312H14H13C13 21.6354 13.906 22.5 15 22.5V21.5ZM14 20.5312H15V16.0312H14H13V20.5312H14ZM14 16.0312V15.0312H9.5V16.0312V17.0312H14V16.0312ZM9.5 16.0312V15.0312C9.49936 15.0312 9.50035 15.0312 9.50246 15.0317C9.5045 15.0321 9.50658 15.0328 9.50844 15.0336C9.51218 15.0352 9.51267 15.0363 9.51105 15.0347C9.50724 15.0307 9.5 15.0198 9.5 15H8.5H7.5C7.5 16.0742 8.34553 17.0312 9.5 17.0312V16.0312ZM8.5 15H9.5C9.5 15.0056 9.49863 15.013 9.49569 15.0198C9.49301 15.0261 9.49003 15.0296 9.48836 15.0312C9.48662 15.0329 9.48568 15.0332 9.48625 15.033C9.48652 15.0329 9.48749 15.0325 9.48937 15.0321C9.49122 15.0318 9.49465 15.0312 9.5 15.0312V14.0312V13.0312C8.40605 13.0312 7.5 13.8959 7.5 15H8.5ZM9.5 14.0312V15.0312H14V14.0312V13.0312H9.5V14.0312ZM14 14.0312H15V9.53125H14H13V14.0312H14ZM14 9.53125H15C15 9.51149 15.0072 9.50057 15.0111 9.49659C15.0127 9.4949 15.0122 9.49603 15.0084 9.49768C15.0066 9.49849 15.0045 9.49917 15.0025 9.4996C15.0004 9.50004 14.9994 9.5 15 9.5V8.5V7.5C13.8455 7.5 13 8.457 13 9.53125H14ZM15 8.5V9.5C14.9847 9.5 14.9757 9.49651 14.9742 9.49584C14.9735 9.49551 14.9781 9.49759 14.9847 9.50431C14.9912 9.51094 14.9956 9.51809 14.998 9.52364C15 9.52838 15 9.53056 15 9.53125H16H17C17 8.43642 16.1033 7.5 15 7.5V8.5ZM16 9.53125H15V14.0312H16H17V9.53125H16ZM16 14.0312V15.0312H20.5V14.0312V13.0312H16V14.0312ZM20.5 14.0312L20.5587 15.0295C20.5348 15.0309 20.5163 15.0261 20.5063 15.0221C20.4977 15.0187 20.4968 15.0164 20.4998 15.0194C20.5028 15.0223 20.5041 15.025 20.5039 15.0245C20.5033 15.0233 20.5 15.015 20.5 15H21.5H22.5C22.5 13.9299 21.5827 12.9658 20.4413 13.033L20.5 14.0312Z" fill="url(#paint2_linear_103_92)" mask="url(#path-2-inside-1_103_92)"/>
<defs>
<linearGradient id="paint0_linear_103_92" x1="0" y1="15" x2="30" y2="15" gradientUnits="userSpaceOnUse">
<stop stop-color="#2B79FF"/>
<stop offset="1" stop-color="#0014C6"/>
</linearGradient>
<linearGradient id="paint1_linear_103_92" x1="8" y1="15" x2="22" y2="15" gradientUnits="userSpaceOnUse">
<stop stop-color="#2B79FF"/>
<stop offset="1" stop-color="#0014C6"/>
</linearGradient>
<linearGradient id="paint2_linear_103_92" x1="8" y1="15" x2="22" y2="15" gradientUnits="userSpaceOnUse">
<stop stop-color="#2B79FF"/>
<stop offset="1" stop-color="#0014C6"/>
</linearGradient>
</defs>
</svg>
