<svg width="30" height="30" viewBox="0 0 30 30" fill="none" xmlns="http://www.w3.org/2000/svg">
<circle cx="15" cy="15" r="14.5" fill="url(#paint0_linear_103_111)" stroke="#F2F2F2"/>
<mask id="path-2-inside-1_103_111" fill="white">
<path d="M19.9375 16.625H10.3125C9.82031 16.625 9.4375 16.2422 9.4375 15.75C9.4375 15.2852 9.82031 14.875 10.3125 14.875H19.9375C20.4023 14.875 20.8125 15.2852 20.8125 15.75C20.8125 16.2422 20.4023 16.625 19.9375 16.625Z"/>
</mask>
<path d="M19.9375 16.625H10.3125C9.82031 16.625 9.4375 16.2422 9.4375 15.75C9.4375 15.2852 9.82031 14.875 10.3125 14.875H19.9375C20.4023 14.875 20.8125 15.2852 20.8125 15.75C20.8125 16.2422 20.4023 16.625 19.9375 16.625Z" fill="white"/>
<path d="M19.9375 16.625V15.625H10.3125V16.625V17.625H19.9375V16.625ZM10.3125 16.625V15.625C10.3321 15.625 10.3676 15.635 10.3975 15.665C10.4275 15.6949 10.4375 15.7304 10.4375 15.75H9.4375H8.4375C8.4375 16.7945 9.26803 17.625 10.3125 17.625V16.625ZM9.4375 15.75H10.4375C10.4375 15.7934 10.4205 15.8219 10.4051 15.8376C10.3867 15.8564 10.3527 15.875 10.3125 15.875V14.875V13.875C9.24786 13.875 8.4375 14.7533 8.4375 15.75H9.4375ZM10.3125 14.875V15.875H19.9375V14.875V13.875H10.3125V14.875ZM19.9375 14.875V15.875C19.8737 15.875 19.846 15.849 19.8422 15.8453C19.8385 15.8415 19.8125 15.8138 19.8125 15.75H20.8125H21.8125C21.8125 14.7329 20.9546 13.875 19.9375 13.875V14.875ZM20.8125 15.75H19.8125C19.8125 15.7098 19.8311 15.6758 19.8499 15.6574C19.8656 15.642 19.8941 15.625 19.9375 15.625V16.625V17.625C20.9342 17.625 21.8125 16.8146 21.8125 15.75H20.8125Z" fill="#F2F2F2" mask="url(#path-2-inside-1_103_111)"/>
<defs>
<linearGradient id="paint0_linear_103_111" x1="0" y1="15" x2="30" y2="15" gradientUnits="userSpaceOnUse">
<stop stop-color="#2B79FF"/>
<stop offset="1" stop-color="#0014C6"/>
</linearGradient>
</defs>
</svg>
