<svg width="1728" height="1412" viewBox="0 0 1728 1412" fill="none" xmlns="http://www.w3.org/2000/svg">
<g filter="url(#filter0_i_103_145)">
<path d="M1714.67 0.0158931C1733.67 -0.4518 1750.46 9.44306 1759.22 24.3702C1772.33 33.94 1780.26 49.5821 1778.84 66.577C1776.85 90.2334 1771.83 112.862 1767.22 132.639C1763.72 147.658 1760.51 160.821 1758.04 173.54C1763.88 181.181 1767.43 190.563 1767.7 200.775C1768.11 215.923 1761.19 229.608 1750.07 238.681C1750 239.569 1749.94 240.456 1749.87 241.343C1761.04 249.876 1768.36 262.955 1768.74 277.776C1769.16 293.752 1761.45 308.099 1749.25 317.127C1761.34 325.603 1769.37 339.231 1769.77 354.776C1770.2 370.752 1762.48 385.1 1750.28 394.128C1762.38 402.604 1770.41 416.232 1770.81 431.777C1771.23 447.753 1763.52 462.1 1751.32 471.128C1763.42 479.604 1771.44 493.231 1771.85 508.776C1772.27 524.752 1764.55 539.101 1752.35 548.129C1764.45 556.605 1772.48 570.232 1772.88 585.777C1773.31 601.752 1765.59 616.1 1753.39 625.128C1765.49 633.604 1773.51 647.232 1773.92 662.777C1774.27 675.912 1769.11 687.947 1760.48 696.83C1762.76 701.507 1764.28 706.605 1764.86 711.98C1770.96 719.721 1774.68 729.315 1774.95 739.778C1775.66 766.278 1753.97 788.309 1726.53 788.985C1672.37 790.318 1625.85 794.779 1581.61 812.177L1579.49 813.016C1566.24 818.364 1553.49 826.758 1539.13 838.47C1523.33 851.363 1513.68 861.026 1495.86 876.434L1492.19 879.595C1416.32 944.446 1315.57 997.492 1202.99 984.841L1200.33 984.53C1179.18 981.962 1157.92 977.535 1140.59 974.278C1122.78 970.933 1107.51 968.471 1092.79 967.79L1091.37 967.729C1055.05 966.331 1020.53 968.925 988.213 977.723L986.669 978.146C954.616 987.091 922.086 1000.34 895.332 1017.16L894.063 1017.96C855.931 1042.26 826.684 1078.26 785.862 1120.03L781.875 1124.09C741.817 1164.67 691.21 1213.55 616.99 1227.4L615.233 1227.73C566.536 1236.41 516.382 1234.1 473.261 1231.53L455.235 1230.45C408.242 1227.68 360.042 1219.89 317.534 1214.37C274.138 1208.74 234.21 1205.06 195.535 1207.75L193.693 1207.88C132.777 1212.44 77.1174 1241.39 31.4219 1291.52L30.3438 1292.71C20.303 1303.83 8.41261 1318.1 -0.752991 1332.81C-10.6498 1348.69 -13.6138 1359.2 -13.6138 1364C-13.6138 1390.51 -35.8705 1412 -63.3253 1412C-87.7723 1412 -108.099 1394.96 -112.259 1372.51C-117.872 1367.79 -122.468 1361.79 -125.505 1354.72L-125.748 1354.14L-126.104 1353.27C-133.474 1334.93 -134.102 1315.73 -133.989 1302.84C-133.927 1295.79 -133.577 1288.82 -133.302 1283.17C-133.007 1277.11 -132.803 1272.62 -132.803 1268.75V1095.89C-132.803 1066.48 -127.736 1034.61 -125.582 1012.71L-125.344 1010.23C-122.945 984.57 -122.416 958.377 -122.313 930.798C-122.208 902.975 -122.553 872.709 -121.499 842.947L-121.154 833.375C-120.342 811.266 -119.372 788.728 -117.739 765.919C-120.049 760.38 -121.323 754.331 -121.323 747.995C-121.323 731.329 -117.255 715.33 -111.52 700.916C-118.303 692.71 -122.36 682.311 -122.36 670.996C-122.36 639.737 -108.053 610.83 -95.268 590.313C-81.7505 568.62 -65.5469 549.502 -53.9356 536.636L-52.5206 535.077C7.49191 469.26 86.0137 425.957 176.687 419.171L179.039 419.002C228.409 415.569 276.692 420.423 321.447 426.228C368.488 432.33 409.779 439.142 451.975 441.631L470.672 442.734C513.608 445.217 551.842 446.743 587.854 440.323L589.725 439.974C628.88 432.356 659.77 406.202 700.579 364.857L702.151 363.258C735.332 329.392 778.875 277.398 829.98 244.837L831.731 243.728C868.575 220.564 910.621 203.834 949.748 192.918L951.902 192.326C997.047 180.034 1042.57 177.134 1086.01 178.805L1088.17 178.897C1110.56 179.932 1131.71 183.562 1150.25 187.045C1170.43 190.836 1186.59 194.238 1203.4 196.279L1205.12 196.479C1277.67 204.625 1351.1 171.021 1416.95 114.719L1419.33 112.667C1431.7 101.916 1450.95 84.1299 1465.64 72.1414C1483.81 57.3145 1505.42 42.0911 1531.86 31.4297L1534.78 30.2657C1596.2 6.12235 1657.44 1.42475 1714.67 0.0158931Z" fill="url(#paint0_linear_103_145)"/>
</g>
<defs>
<filter id="filter0_i_103_145" x="-146" y="0" width="1925" height="1416" filterUnits="userSpaceOnUse" color-interpolation-filters="sRGB">
<feFlood flood-opacity="0" result="BackgroundImageFix"/>
<feBlend mode="normal" in="SourceGraphic" in2="BackgroundImageFix" result="shape"/>
<feColorMatrix in="SourceAlpha" type="matrix" values="0 0 0 0 0 0 0 0 0 0 0 0 0 0 0 0 0 0 127 0" result="hardAlpha"/>
<feOffset dx="-12" dy="4"/>
<feGaussianBlur stdDeviation="9.25"/>
<feComposite in2="hardAlpha" operator="arithmetic" k2="-1" k3="1"/>
<feColorMatrix type="matrix" values="0 0 0 0 0 0 0 0 0 0 0 0 0 0 0 0 0 0 0.25 0"/>
<feBlend mode="normal" in2="shape" result="effect1_innerShadow_103_145"/>
</filter>
<linearGradient id="paint0_linear_103_145" x1="1727.82" y1="777.942" x2="367.827" y2="768.606" gradientUnits="userSpaceOnUse">
<stop stop-color="#FEC11B"/>
<stop offset="1" stop-color="#FFD221"/>
</linearGradient>
</defs>
</svg>
