<svg width="90" height="66" viewBox="0 0 90 66" fill="none" xmlns="http://www.w3.org/2000/svg">
<mask id="mask0_129_94" style="mask-type:luminance" maskUnits="userSpaceOnUse" x="0" y="0" width="90" height="66">
<path d="M0.932373 0H89.1271V66H0.932373V0Z" fill="white"/>
</mask>
<g mask="url(#mask0_129_94)">
<path d="M84.1993 0.00341797H13.3655C10.6703 0.00341797 8.47697 2.19064 8.47697 4.87676V36.1124C3.96259 38.9993 0.966187 44.046 0.966187 49.7711C0.966187 58.7177 8.2762 65.9973 17.2563 65.9973C19.2579 65.9973 21.1775 65.6353 22.951 64.9722H84.2024C86.9006 64.9722 89.0939 62.788 89.0939 60.1019V4.87372C89.0909 2.1876 86.8976 0.00341797 84.1993 0.00341797ZM3.15949 49.7711C3.15949 42.3972 8.89677 36.3344 16.1581 35.7747V49.7711C16.1581 50.3765 16.6509 50.8662 17.2563 50.8662H31.3074C30.7477 58.0972 24.6576 63.8131 17.2563 63.8131C9.48388 63.8131 3.15949 57.5131 3.15949 49.7711ZM86.8976 60.1019C86.8976 61.5833 85.6869 62.788 84.1993 62.788H26.9695C30.9576 59.8281 33.5464 55.0947 33.5464 49.7711C33.5464 49.1688 33.0536 48.679 32.4482 48.679H18.3545V34.64C18.3545 34.0377 17.8617 33.5479 17.2563 33.5479C14.9139 33.5479 12.6871 34.0438 10.6703 34.9351V4.87372C10.6703 3.39225 11.881 2.1876 13.3686 2.1876H84.2054C85.6899 2.1876 86.9006 3.39225 86.9006 4.87372V60.1019H86.8976ZM51.7408 38.2874H42.6816C42.0763 38.2874 41.5834 38.7772 41.5834 39.3795V58.0029C41.5834 58.6082 42.0763 59.098 42.6816 59.098H51.7408C52.3462 59.098 52.839 58.6082 52.839 58.0029V39.3795C52.839 38.7772 52.3492 38.2874 51.7408 38.2874ZM50.6426 56.9108H43.7798V40.4747H50.6426V56.9108ZM66.7228 28.1331H57.6636C57.0583 28.1331 56.5685 28.6229 56.5685 29.2252V58.0029C56.5685 58.6082 57.0583 59.098 57.6636 59.098H66.7228C67.3282 59.098 67.821 58.6082 67.821 58.0029V29.2252C67.821 28.6229 67.3312 28.1331 66.7228 28.1331ZM65.6277 56.9108H58.7618V30.3173H65.6277V56.9108ZM81.7079 32.5106H72.6487C72.0433 32.5106 71.5505 33.0004 71.5505 33.6027V58.0029C71.5505 58.6082 72.0433 59.098 72.6487 59.098H81.7079C82.3132 59.098 82.803 58.6082 82.803 58.0029V33.6027C82.803 33.0004 82.3132 32.5106 81.7079 32.5106ZM80.6097 56.9108H73.7438V34.6978H80.6097V56.9108ZM16.4349 14.5261H22.951C23.5563 14.5261 24.0492 14.0363 24.0492 13.431V6.93926C24.0492 6.33694 23.5563 5.84717 22.951 5.84717H16.4349C15.8296 5.84717 15.3368 6.33694 15.3368 6.93926V13.431C15.3368 14.0363 15.8296 14.5261 16.4349 14.5261ZM17.5301 8.03135H21.8558V12.3389H17.5301V8.03135ZM26.5892 7.96138C26.5892 7.35906 27.0821 6.86929 27.6874 6.86929H43.9441C44.5494 6.86929 45.0422 7.35906 45.0422 7.96138C45.0422 8.56371 44.5494 9.05347 43.9441 9.05347H27.6874C27.0821 9.05347 26.5892 8.56371 26.5892 7.96138ZM26.5892 12.4119C26.5892 11.8065 27.0821 11.3167 27.6874 11.3167H40.54C41.1454 11.3167 41.6352 11.8065 41.6352 12.4119C41.6352 13.0142 41.1454 13.504 40.54 13.504H27.6874C27.0821 13.504 26.5892 13.0142 26.5892 12.4119ZM24.0492 23.8864V17.3917C24.0492 16.7894 23.5563 16.2996 22.951 16.2996H16.4349C15.8296 16.2996 15.3368 16.7894 15.3368 17.3917V23.8864C15.3368 24.4888 15.8296 24.9785 16.4349 24.9785H22.951C23.5563 24.9785 24.0492 24.4888 24.0492 23.8864ZM21.8558 22.7943H17.5301V18.4868H21.8558V22.7943ZM26.5892 18.4138C26.5892 17.8115 27.0821 17.3217 27.6874 17.3217H43.9441C44.5494 17.3217 45.0422 17.8115 45.0422 18.4138C45.0422 19.0161 44.5494 19.5059 43.9441 19.5059H27.6874C27.0821 19.5059 26.5892 19.0192 26.5892 18.4138ZM41.6352 22.8643C41.6352 23.4666 41.1454 23.9564 40.54 23.9564H27.6874C27.0821 23.9564 26.5892 23.4666 26.5892 22.8643C26.5892 22.262 27.0821 21.7722 27.6874 21.7722H40.54C41.1454 21.7722 41.6352 22.2589 41.6352 22.8643ZM21.6429 29.1765C21.0375 29.1765 20.5478 29.6663 20.5478 30.2686V45.4028C20.5478 46.0051 21.0375 46.4948 21.6429 46.4948H36.8348C37.4402 46.4948 37.933 46.0051 37.933 45.4028C37.933 36.4561 30.626 29.1765 21.6429 29.1765ZM22.7411 44.3076V31.4033C29.6404 31.9357 35.1617 37.4357 35.6971 44.3076H22.7411Z" fill="#000A60"/>
</g>
</svg>
