<svg width="83" height="86" viewBox="0 0 83 86" fill="none" xmlns="http://www.w3.org/2000/svg">
<mask id="mask0_129_89" style="mask-type:luminance" maskUnits="userSpaceOnUse" x="0" y="0" width="83" height="86">
<path d="M0.250977 0H82.2626V85.5169H0.250977V0Z" fill="white"/>
</mask>
<g mask="url(#mask0_129_89)">
<path d="M68.3393 51.1849L64.6639 53.191C64.6168 53.086 64.5661 52.9846 64.5082 52.8796C63.755 51.4927 62.5057 50.4824 60.9812 50.0333C59.4639 49.5807 57.8634 49.7545 56.4801 50.5077L50.0308 54.0202C47.8618 53.3177 45.6927 52.6188 43.5236 51.92C41.2351 51.1812 38.9501 50.4425 36.6616 49.7074C32.0808 48.2228 27.6123 48.6428 23.3828 50.9495L12.2152 57.0403L11.013 54.9472C10.6726 54.3642 10.1295 53.9442 9.47403 53.7667C8.8186 53.5893 8.13783 53.6798 7.55482 54.0202L1.59804 57.4567C1.01142 57.7971 0.591363 58.3475 0.417548 59.0065C0.243733 59.6583 0.334262 60.3391 0.671028 60.9185L14.0765 84.2459C14.4169 84.8362 14.9637 85.2562 15.6227 85.43C15.84 85.488 16.0573 85.5169 16.2782 85.5169C16.7163 85.5169 17.1472 85.4011 17.5311 85.1766L23.4879 81.7365C24.0745 81.4033 24.4945 80.8565 24.672 80.2011C24.8494 79.5457 24.7589 78.8577 24.4221 78.2747L23.2706 76.2722L23.8174 75.9752C26.3087 74.6209 28.9341 74.3711 31.6282 75.2401L37.3967 77.105C38.7329 77.5359 40.051 77.7496 41.3546 77.7496C43.3897 77.7496 45.3813 77.2245 47.3041 76.1744L74.0028 61.6138C76.8708 60.0494 77.9318 56.4355 76.3747 53.564C74.8176 50.6924 71.2109 49.6242 68.3393 51.1849ZM57.7547 52.8542C58.5152 52.4414 59.3951 52.3473 60.2316 52.5935C61.0681 52.8397 61.7561 53.3974 62.1725 54.1578C62.2269 54.2592 62.2739 54.3642 62.3174 54.4729L55.9912 57.9202C55.4481 56.7759 54.5464 55.8199 53.4202 55.2152L57.7547 52.8542ZM16.318 82.7938L3.0465 59.7018L8.77515 56.3993L20.2542 76.3736C20.2578 76.3808 20.2614 76.3844 20.2614 76.3917C20.2723 76.4025 20.2795 76.417 20.2868 76.4315L22.043 79.4877L16.318 82.7938ZM72.7282 59.2673L46.0259 73.8279C43.5418 75.1858 40.9128 75.4321 38.215 74.563L32.4429 72.6981C29.0318 71.5973 25.7004 71.9087 22.5464 73.6287L21.938 73.9546L13.5478 59.3542L24.6611 53.296C28.2243 51.3514 31.9867 51.0002 35.8468 52.2495C38.1354 52.9882 40.424 53.7233 42.7089 54.462C45.6855 55.4216 48.6621 56.3812 51.635 57.3444C52.83 57.7283 53.7099 58.7893 53.8693 60.0494C53.8729 60.0929 53.8837 60.1363 53.8946 60.1762C53.891 60.2196 53.891 60.2631 53.8946 60.3102C53.9091 60.6976 53.8584 61.0851 53.7389 61.4544C53.4746 62.2764 52.8988 62.95 52.1202 63.3519C51.3453 63.7502 50.4654 63.8227 49.6398 63.5547C47.1013 62.7399 44.5629 61.9179 42.0281 61.0996C40.098 60.4767 38.168 59.8539 36.2379 59.2347C35.539 59.0065 34.7894 59.394 34.5613 60.0965C34.3368 60.7954 34.7243 61.5486 35.4231 61.7767C37.3496 62.3959 39.2797 63.0188 41.2097 63.6416C43.7445 64.46 46.283 65.282 48.8214 66.0967C49.4152 66.2887 50.0272 66.3864 50.6356 66.3864C51.5626 66.3864 52.4824 66.1619 53.3333 65.7274C54.7456 65.0032 55.7885 63.7756 56.2737 62.2764C56.4403 61.7514 56.538 61.2082 56.5561 60.6578L64.519 56.3124C64.5263 56.3088 64.5335 56.3052 64.5408 56.3015L69.6104 53.535C71.1928 52.6768 73.1772 53.2634 74.0354 54.8422C74.89 56.4174 74.3034 58.4054 72.7282 59.2673ZM27.8079 17.4068C29.3939 25.1054 31.6499 31.2686 34.7098 36.2549C38.5047 42.4362 43.6214 46.8286 49.9367 49.3127C50.1902 49.4105 50.4473 49.4576 50.708 49.4576C50.9687 49.4576 51.2294 49.4069 51.4829 49.3091C57.791 46.8286 62.9113 42.4362 66.7062 36.2549C69.7625 31.2686 72.0221 25.1054 73.6081 17.4068C73.8218 16.3712 73.2569 15.3464 72.261 14.9698C67.6187 13.2389 63.9578 9.38601 62.4695 4.65317C62.1834 3.76237 61.3686 3.16126 60.4344 3.16126H40.9816C40.051 3.16126 39.2326 3.76237 38.9465 4.66041C37.4546 9.386 33.7973 13.2389 29.1441 14.9734C28.1555 15.3464 27.5942 16.3712 27.8079 17.4068ZM41.3654 5.83004H60.0505C61.8068 11.0264 65.8263 15.2704 70.9067 17.3054C67.5463 33.2023 61.1188 42.5702 50.7044 46.7453C40.2936 42.5665 33.8661 33.1986 30.5056 17.3054C35.5897 15.2667 39.6092 11.0228 41.3654 5.83004ZM50.7044 36.8198C57.7294 36.8198 63.4472 31.0911 63.4472 24.0516C63.4472 17.0085 57.7294 11.2835 50.7044 11.2835C43.6794 11.2835 37.9652 17.0121 37.9652 24.0516C37.9652 31.0911 43.6794 36.8198 50.7044 36.8198ZM50.7044 13.9523C56.2628 13.9523 60.782 18.4823 60.782 24.0516C60.782 29.621 56.2628 34.151 50.7044 34.151C45.1495 34.151 40.6304 29.621 40.6304 24.0516C40.6304 18.4823 45.1495 13.9523 50.7044 13.9523ZM44.4651 23.7583C43.9437 23.2369 43.9437 22.3895 44.4688 21.8717C44.9866 21.3503 45.8339 21.3503 46.3518 21.8717L49.7593 25.2937L55.0642 19.9779C55.5821 19.4564 56.4258 19.4564 56.9472 19.9779C57.4687 20.4993 57.4687 21.3466 56.9472 21.8645L50.7008 28.1254C50.4509 28.3753 50.1141 28.5165 49.7593 28.5165C49.4044 28.5165 49.0676 28.3753 48.8178 28.1254L44.4651 23.7583ZM81.3248 4.58075C79.6047 4.01223 78.2396 2.64344 77.671 0.916149C77.49 0.369356 76.9794 0 76.4036 0C75.8279 0 75.3209 0.369356 75.1399 0.916149C74.5713 2.64344 73.2062 4.00861 71.4861 4.57713C70.9393 4.75818 70.57 5.26877 70.57 5.84453C70.57 6.42029 70.9393 6.93087 71.4861 7.11193C73.2062 7.68407 74.575 9.04924 75.1399 10.7729C75.3209 11.3233 75.8279 11.6927 76.4036 11.6927C76.9794 11.6927 77.49 11.3233 77.671 10.7729C78.2359 9.04924 79.6011 7.68045 81.3248 7.11193C81.8716 6.93087 82.2409 6.42029 82.2409 5.84453C82.2409 5.26877 81.8716 4.75818 81.3248 4.58075ZM76.4036 7.5175C75.9293 6.88742 75.3644 6.32252 74.7307 5.84815C75.3644 5.37016 75.9256 4.80526 76.4036 4.17156C76.878 4.80526 77.4429 5.37016 78.073 5.84815C77.4429 6.32252 76.878 6.88742 76.4036 7.5175ZM20.0912 39.159C21.8113 39.7276 23.1764 41.0927 23.745 42.82C23.926 43.3668 24.4366 43.7398 25.0087 43.7398C25.5845 43.7398 26.0951 43.3668 26.2761 42.82C26.841 41.0964 28.2062 39.7276 29.9299 39.159C30.4767 38.978 30.8424 38.4674 30.8424 37.8917C30.8424 37.3159 30.4767 36.8017 29.9299 36.6242C28.2062 36.0557 26.841 34.6869 26.2761 32.9633C26.0951 32.4129 25.5845 32.0435 25.0087 32.0435C24.4366 32.0435 23.926 32.4129 23.745 32.9633C23.1764 34.6869 21.8113 36.0557 20.0912 36.6242C19.5444 36.8017 19.1751 37.3159 19.1751 37.8917C19.1751 38.4674 19.5444 38.978 20.0912 39.159ZM25.0087 36.2187C25.4867 36.8488 26.048 37.4137 26.6817 37.8917C26.048 38.366 25.4867 38.9309 25.0087 39.561C24.5344 38.9309 23.9731 38.366 23.343 37.8917C23.9731 37.4137 24.5344 36.8488 25.0087 36.2187ZM80.9445 37.7685C80.9445 38.5036 80.3471 39.1011 79.612 39.1011H77.3596V41.3607C77.3596 42.0958 76.7621 42.6933 76.027 42.6933C75.2919 42.6933 74.6945 42.0958 74.6945 41.3607V39.1011H72.4385C71.7034 39.1011 71.1059 38.5036 71.1059 37.7685C71.1059 37.0298 71.7034 36.4323 72.4385 36.4323H74.6908V34.1727C74.6908 33.4376 75.2883 32.8402 76.0234 32.8402C76.7585 32.8402 77.356 33.4376 77.356 34.1727V36.4323H79.6084C80.3471 36.4323 80.9445 37.0298 80.9445 37.7685ZM20.4678 8.09326C20.4678 7.35454 21.0653 6.75705 21.8004 6.75705H24.0564V4.49746C24.0564 3.76237 24.6502 3.16126 25.3853 3.16126C26.1204 3.16126 26.7179 3.76237 26.7179 4.49746V6.75705H28.9703C29.7054 6.75705 30.3029 7.35454 30.3029 8.08964C30.3029 8.82835 29.7054 9.42584 28.9703 9.42584H26.7179V11.6818C26.7179 12.4205 26.1204 13.018 25.3853 13.018C24.6502 13.018 24.0564 12.4205 24.0564 11.6818V9.42584H21.8004C21.0653 9.42584 20.4678 8.82835 20.4678 8.09326Z" fill="#000A60"/>
</g>
</svg>
