<svg width="87" height="86" viewBox="0 0 87 86" fill="none" xmlns="http://www.w3.org/2000/svg">
<mask id="mask0_129_49" style="mask-type:luminance" maskUnits="userSpaceOnUse" x="0" y="0" width="87" height="86">
<path d="M0.250977 0H86.251V85.979H0.250977V0Z" fill="white"/>
</mask>
<g mask="url(#mask0_129_49)">
<path d="M75.8684 17.5631L79.3642 14.0672V72.1354C79.3642 76.1562 76.0783 79.4421 72.0576 79.4421H13.9929L17.4887 75.9462H72.0576C74.1572 75.9462 75.8684 74.2315 75.8684 72.1354V57.6621L62.4799 44.3086C61.0451 42.8389 58.5291 42.8389 57.0979 44.3086L49.1964 52.2101L58.8091 61.8228L56.363 64.3039L42.7645 50.7054L45.2106 48.2244L46.7118 49.7256L54.6133 41.8241C57.3078 38.9581 62.2699 38.9581 64.9609 41.8241L75.8684 52.7315V17.5631ZM86.181 2.49487L2.77049 85.9089L0.28595 83.4278L7.62758 76.0862C6.89622 74.9314 6.40631 73.6051 6.40631 72.1354V13.8223C6.40631 9.80151 9.6922 6.51563 13.713 6.51563H72.0226C73.4923 6.51563 74.8571 6.97054 76.0084 7.7404L83.6999 0.0488281L86.181 2.52987V2.49487ZM9.93715 51.5802L24.0955 37.4219C26.9265 34.5524 31.5771 34.5524 34.4081 37.4219L40.385 43.3988L51.5024 32.2813C42.3796 31.0566 43.111 17.703 52.3773 17.5281C56.1531 17.5281 59.299 20.394 59.7189 24.0649L73.4573 10.3264C73.0374 10.1514 72.5475 10.0465 72.0576 10.0465H13.7479C11.6483 10.0465 9.93715 11.7611 9.93715 13.8573V51.6152V51.5802ZM56.328 24.9047C56.223 19.7677 48.5315 19.7327 48.4615 24.9047C48.5665 30.1152 56.223 30.0802 56.328 24.9047ZM10.2171 73.5352L37.9039 45.8448L31.9271 39.8679C30.4573 38.3982 28.0463 38.3982 26.5416 39.8679L9.93715 56.5423C10.0421 57.1722 9.65721 73.4652 10.2171 73.5352Z" fill="#000A60"/>
</g>
</svg>
