<svg width="87" height="87" viewBox="0 0 87 87" fill="none" xmlns="http://www.w3.org/2000/svg">
<mask id="mask0_129_61" style="mask-type:luminance" maskUnits="userSpaceOnUse" x="0" y="0" width="87" height="87">
<path d="M0 0H87V87H0V0Z" fill="white"/>
</mask>
<g mask="url(#mask0_129_61)">
<path d="M30.701 64.9373C34.8151 66.1708 39.0227 66.7858 43.3166 66.7822C45.3233 66.757 47.3192 66.6024 49.3043 66.3147C51.2894 66.027 53.2458 65.6098 55.177 65.0668C57.1045 64.5201 58.9925 63.8548 60.8338 63.0637C62.6787 62.2689 64.4588 61.3627 66.185 60.3377C67.9076 59.3128 69.5547 58.1764 71.1298 56.9357C72.705 55.695 74.1938 54.3572 75.5928 52.9187C76.9917 51.4838 78.2899 49.9626 79.4911 48.3551C80.6922 46.7476 81.7819 45.0681 82.76 43.3204C79.2933 37.2895 74.7368 32.244 69.0944 28.1802C68.9002 28.04 68.7383 27.8674 68.6089 27.666C68.483 27.461 68.4003 27.2416 68.3607 27.0079C68.3212 26.7705 68.3284 26.5368 68.3823 26.303C68.4362 26.0693 68.5333 25.8535 68.6736 25.6593C68.8103 25.4651 68.9829 25.3033 69.1843 25.1774C69.3893 25.0515 69.6086 24.9652 69.8424 24.9256C70.0797 24.8861 70.3135 24.8933 70.5472 24.9472C70.781 25.0012 70.9968 25.0983 71.191 25.2349C74.3377 27.5041 77.1931 30.0898 79.7644 32.992C82.3321 35.8977 84.5474 39.048 86.4138 42.4501C86.5612 42.7198 86.6368 43.0111 86.6368 43.3204C86.6368 43.6296 86.5612 43.9173 86.4138 44.1907C85.3745 46.1362 84.2093 48.0063 82.9183 49.7972C81.6272 51.5917 80.2247 53.2891 78.7071 54.893C77.1895 56.497 75.5712 57.993 73.8558 59.3811C72.1368 60.7693 70.3351 62.0351 68.447 63.1823C66.5626 64.3295 64.6063 65.3473 62.5852 66.2319C60.5641 67.1202 58.4891 67.8682 56.3673 68.476C54.2455 69.0838 52.0914 69.5513 49.9085 69.8713C47.722 70.1914 45.5247 70.3676 43.3166 70.3928C38.6703 70.3964 34.1174 69.7275 29.6653 68.3933C29.4279 68.3321 29.2086 68.2279 29.0144 68.0804C28.8202 67.9294 28.6619 67.7496 28.5397 67.5338C28.4174 67.318 28.3455 67.0914 28.3167 66.8469C28.2879 66.6024 28.3095 66.3614 28.3814 66.1277C28.4534 65.8903 28.5648 65.6781 28.7231 65.4875C28.8813 65.3005 29.0683 65.1495 29.2877 65.038C29.5071 64.9265 29.7408 64.8618 29.9854 64.8438C30.2299 64.8258 30.4673 64.8582 30.701 64.9373ZM58.1798 20.4879C58.2481 20.2613 58.2697 20.0276 58.2481 19.7902C58.223 19.5529 58.1546 19.3263 58.0396 19.1177C57.9281 18.9056 57.777 18.7257 57.5936 18.5747C57.4066 18.4237 57.2016 18.3122 56.9715 18.2439C52.5193 16.9097 47.9665 16.2443 43.3166 16.2443C41.1085 16.2731 38.9148 16.4457 36.7283 16.7658C34.5454 17.0895 32.3912 17.5534 30.2695 18.1611C28.1477 18.7725 26.0727 19.5205 24.0516 20.4052C22.0305 21.2899 20.0742 22.3076 18.1861 23.4548C16.3017 24.602 14.5 25.8679 12.781 27.256C11.0656 28.6441 9.44729 30.1402 7.92968 31.7441C6.41207 33.3516 5.00954 35.049 3.7185 36.84C2.42745 38.6309 1.26227 40.5009 0.222961 42.4501C0.0719202 42.7198 -4.84427e-06 43.0111 -4.84427e-06 43.3204C-4.84427e-06 43.6296 0.0719202 43.9173 0.222961 44.1907C2.08581 47.5891 4.30468 50.7394 6.87239 53.6451C9.4437 56.5509 12.2991 59.1366 15.4458 61.4022C15.64 61.5389 15.8558 61.636 16.0895 61.6899C16.3233 61.7439 16.557 61.751 16.7944 61.7115C17.0281 61.6719 17.2475 61.5892 17.4525 61.4633C17.6539 61.3339 17.8265 61.1756 17.9668 60.9779C18.1034 60.7837 18.2005 60.5679 18.2545 60.3377C18.3084 60.104 18.3156 59.8666 18.276 59.6329C18.2365 59.3955 18.1538 59.1761 18.0279 58.9712C17.8984 58.7698 17.7366 58.5971 17.5424 58.4605C11.8999 54.3968 7.3435 49.3476 3.87673 43.3204C4.85491 41.569 5.94456 39.8896 7.1457 38.2856C8.34325 36.6781 9.64508 35.1569 11.044 33.7184C12.443 32.2835 13.9318 30.9421 15.5033 29.7014C17.0785 28.4607 18.7292 27.3279 20.4518 26.303C22.1743 25.2745 23.9581 24.3682 25.8029 23.5771C27.6442 22.7859 29.5322 22.117 31.4598 21.574C33.391 21.0273 35.3473 20.6138 37.3325 20.3261C39.3176 20.0384 41.3135 19.8801 43.3166 19.855C47.6141 19.8514 51.8181 20.4663 55.9358 21.6998C56.1623 21.7682 56.3961 21.7897 56.637 21.7646C56.8744 21.7394 57.0973 21.6711 57.3095 21.5596C57.5181 21.4445 57.6979 21.2971 57.8489 21.11C58 20.9266 58.1115 20.7181 58.1798 20.4879ZM43.3166 30.6832C44.4206 30.6868 45.5031 30.8271 46.5676 31.1112C46.7977 31.1723 47.0315 31.1867 47.2688 31.1543C47.5062 31.122 47.7292 31.0464 47.9377 30.9278C48.1427 30.8055 48.3189 30.6508 48.4664 30.4602C48.6102 30.2696 48.7145 30.0611 48.7757 29.8273C48.8368 29.5972 48.8512 29.3634 48.8224 29.126C48.79 28.8887 48.7145 28.6657 48.5923 28.4571C48.4736 28.2522 48.3189 28.0759 48.1283 27.9285C47.9377 27.7847 47.7256 27.6804 47.4954 27.6192C46.118 27.2488 44.7155 27.0654 43.2878 27.0654C41.8637 27.0654 40.4612 27.2524 39.0838 27.6228C37.7065 27.9896 36.401 28.5327 35.1675 29.2447C33.9304 29.9604 32.8084 30.8199 31.8015 31.8268C30.7945 32.8374 29.935 33.9594 29.2194 35.1929C28.5073 36.43 27.9679 37.7354 27.6011 39.1128C27.2306 40.4901 27.0472 41.8927 27.0472 43.3204C27.0472 44.7445 27.2342 46.147 27.6047 47.5244C27.7089 47.9199 27.9247 48.24 28.2484 48.4917C28.572 48.7399 28.9389 48.8622 29.3488 48.8622C29.5071 48.8622 29.6617 48.8442 29.8163 48.8046C30.0465 48.7435 30.2587 48.6392 30.4493 48.4953C30.6399 48.3479 30.7945 48.1717 30.9132 47.9631C31.0319 47.7545 31.1074 47.5351 31.1397 47.2978C31.1685 47.0604 31.1541 46.8231 31.093 46.5929C30.9671 46.1254 30.87 45.6543 30.7981 45.176C30.7298 44.6977 30.6866 44.2158 30.6722 43.7339C30.6579 43.252 30.6686 42.7701 30.7082 42.2882C30.7478 41.8064 30.8161 41.3281 30.9096 40.8534C31.0067 40.3822 31.129 39.9147 31.2764 39.4544C31.4239 38.9941 31.5965 38.5446 31.7979 38.1058C31.9992 37.6635 32.2222 37.2355 32.4704 36.822C32.7185 36.4084 32.9918 36.0092 33.2867 35.628C33.5816 35.2432 33.8945 34.88 34.2325 34.5312C34.567 34.1859 34.923 33.8587 35.297 33.553C35.671 33.2437 36.0594 32.9596 36.4658 32.7007C36.8721 32.4382 37.2929 32.2008 37.7244 31.985C38.1596 31.7729 38.6055 31.5859 39.0586 31.424C39.5154 31.2586 39.9757 31.122 40.4468 31.0141C40.9179 30.9062 41.3926 30.8235 41.8745 30.7659C42.3528 30.712 42.8347 30.6832 43.3166 30.6832ZM43.3166 55.9539C42.2089 55.9539 41.1157 55.8137 40.044 55.5296C39.8139 55.4648 39.5765 55.4504 39.3392 55.4828C39.1018 55.5152 38.8788 55.5907 38.6739 55.7094C38.4653 55.8316 38.2891 55.9863 38.1416 56.1769C37.9978 56.3675 37.8935 56.5761 37.8323 56.8098C37.7712 57.04 37.7568 57.2737 37.7892 57.5111C37.8215 57.7484 37.8971 57.9714 38.0157 58.18C38.138 58.3886 38.2927 58.5648 38.4833 58.7086C38.6739 58.8525 38.886 58.9568 39.1162 59.0179C39.7168 59.1797 40.3245 59.302 40.9359 59.3919C41.5508 59.4818 42.1694 59.5358 42.7879 59.5573C43.4101 59.5753 44.0286 59.5609 44.6472 59.507C45.2657 59.4566 45.8771 59.3703 46.4885 59.2481C47.0962 59.1258 47.6968 58.9712 48.2866 58.7806C48.8764 58.59 49.4553 58.3634 50.02 58.1081C50.5846 57.8527 51.1312 57.565 51.6634 57.245C52.1957 56.9249 52.7099 56.5761 53.2026 56.1985C53.6953 55.8209 54.1628 55.4145 54.6087 54.9829C55.0547 54.5514 55.4754 54.0983 55.8674 53.6164C56.263 53.1381 56.6262 52.6382 56.9643 52.1167C57.2987 51.5953 57.6044 51.0559 57.8813 50.4984C58.1546 49.941 58.3992 49.3728 58.6078 48.7866C58.8163 48.204 58.9925 47.6107 59.1328 47.0065C59.2767 46.4023 59.3809 45.791 59.4529 45.176C59.5248 44.5575 59.5608 43.9389 59.5644 43.3204C59.5644 41.8927 59.3809 40.4937 59.0141 39.1164C58.9566 38.8826 58.8559 38.6668 58.7085 38.4726C58.5646 38.2785 58.3884 38.1202 58.1798 37.9979C57.9712 37.8757 57.7483 37.7966 57.5073 37.7642C57.2664 37.7318 57.0326 37.7462 56.7989 37.8109C56.5651 37.8721 56.3493 37.9764 56.1587 38.1238C55.9681 38.2749 55.8135 38.4511 55.6912 38.6632C55.5725 38.8718 55.5006 39.0984 55.4718 39.3393C55.4431 39.5803 55.4611 39.814 55.5258 40.0478C55.6517 40.5153 55.7488 40.9864 55.8207 41.4647C55.8926 41.943 55.9358 42.4213 55.9501 42.9068C55.9681 43.3887 55.9537 43.8706 55.9142 44.3525C55.8746 44.8344 55.8099 45.3127 55.7164 45.7838C55.6193 46.2585 55.5006 46.726 55.3532 47.1863C55.2021 47.6466 55.0295 48.0962 54.8317 48.5349C54.6303 48.9736 54.4074 49.4016 54.1592 49.8152C53.9111 50.2287 53.6414 50.6279 53.3465 51.0127C53.0516 51.3939 52.7351 51.7607 52.4007 52.106C52.0626 52.4548 51.7102 52.782 51.3362 53.0877C50.9622 53.3934 50.5738 53.6775 50.1674 53.94C49.761 54.2026 49.3403 54.4399 48.9087 54.6521C48.4736 54.8643 48.0312 55.0549 47.5745 55.2167C47.1214 55.3785 46.6575 55.5152 46.1864 55.6231C45.7189 55.7346 45.2442 55.8173 44.7623 55.8712C44.284 55.9252 43.8021 55.9539 43.3166 55.9539ZM83.5548 0.525228L0.525045 83.555C0.356022 83.724 0.226558 83.9218 0.133056 84.1412C0.0431501 84.3641 -0.00360107 84.5943 -0.00360107 84.8352C-0.00360107 85.0726 0.0431501 85.3027 0.133056 85.5257C0.226558 85.7451 0.356022 85.9429 0.525045 86.1119C0.694067 86.2809 0.89186 86.4104 1.11123 86.5039C1.3342 86.5938 1.56436 86.6405 1.8053 86.6405C2.04265 86.6405 2.27281 86.5938 2.49578 86.5039C2.71515 86.4104 2.91294 86.2809 3.08196 86.1119L86.1117 3.08215C86.2807 2.91312 86.4102 2.71893 86.5037 2.49596C86.5936 2.273 86.6404 2.04284 86.6404 1.80549C86.6404 1.56454 86.5936 1.33438 86.5037 1.11141C86.4102 0.892044 86.2807 0.694251 86.1117 0.525228C85.9427 0.356205 85.7449 0.226741 85.5255 0.133239C85.3026 0.0433333 85.0724 -0.00341797 84.8315 -0.00341797C84.5941 -0.00341797 84.364 0.0433333 84.141 0.133239C83.918 0.226741 83.7238 0.356205 83.5548 0.525228Z" fill="#000A60"/>
</g>
</svg>
