<svg width="87" height="79" viewBox="0 0 87 79" fill="none" xmlns="http://www.w3.org/2000/svg">
<mask id="mask0_129_95" style="mask-type:luminance" maskUnits="userSpaceOnUse" x="0" y="0" width="87" height="79">
<path d="M0.250977 0H86.2399V79H0.250977V0Z" fill="white"/>
</mask>
<g mask="url(#mask0_129_95)">
<path d="M84.3253 74.4654C57.0498 74.4654 29.7743 74.4654 2.49884 74.4654C3.02486 75.3841 3.55437 76.3099 4.08389 77.2287C17.4691 52.5166 30.8579 27.7976 44.2432 3.08203C43.1841 3.08203 42.1251 3.08203 41.0696 3.08203C54.9598 27.7976 68.8465 52.5166 82.7402 77.2287C83.901 79.2977 87.0746 77.4461 85.9138 75.3736C72.0236 50.6581 58.1334 25.9425 44.2432 1.22696C43.5804 0.0451856 41.7253 0.0171317 41.0696 1.22696C27.6843 25.9425 14.2955 50.6581 0.910287 75.3736C0.251019 76.5905 1.0716 78.1404 2.49884 78.1404C29.7743 78.1404 57.0498 78.1404 84.3253 78.1404C86.6958 78.1404 86.6958 74.4654 84.3253 74.4654Z" fill="#000A60"/>
</g>
<path d="M44.9129 63.8609C44.8007 66.0491 41.6867 66.0631 41.578 63.8609C41.4693 61.7217 44.8042 61.7428 44.9129 63.8609C45.0322 66.2209 48.7108 66.2314 48.588 63.8609C48.4337 60.824 46.249 58.6954 43.2227 58.5446C40.2174 58.3938 38.0432 61.0835 37.8995 63.8609C37.7452 66.8872 40.4103 69.0859 43.2227 69.2297C46.2595 69.3875 48.4442 66.6698 48.588 63.8609C48.7108 61.4903 45.0322 61.5008 44.9129 63.8609Z" fill="#000A60"/>
<path d="M46.6032 50.4894C44.3308 50.4894 42.062 50.4894 39.7896 50.4894C40.4033 51.1031 41.0134 51.7168 41.6271 52.3305C41.3641 45.2398 41.1046 38.1527 40.8416 31.0656C40.2279 31.6792 39.6178 32.2929 39.0041 32.9066C41.813 32.9066 44.6254 32.9066 47.4343 32.9066C46.8206 32.2929 46.2104 31.6792 45.5968 31.0656C45.3197 38.1527 45.0427 45.2398 44.7657 52.3305C44.671 54.701 48.3496 54.6905 48.4407 52.3305C48.7178 45.2398 48.9948 38.1527 49.2718 31.0656C49.3139 30.0661 48.4092 29.228 47.4343 29.228C44.6254 29.228 41.813 29.228 39.0041 29.228C38.0292 29.228 37.128 30.0661 37.1665 31.0656C37.426 38.1527 37.689 45.2398 37.9521 52.3305C37.9871 53.3299 38.7586 54.168 39.7896 54.168C42.062 54.168 44.3308 54.168 46.6032 54.168C48.9738 54.168 48.9738 50.4894 46.6032 50.4894Z" fill="#000A60"/>
</svg>
