<svg width="81" height="81" viewBox="0 0 81 81" fill="none" xmlns="http://www.w3.org/2000/svg">
<path d="M40.262 46.1666C36.8689 46.1666 34.1062 43.4073 34.1062 40.0108C34.1062 36.6177 36.8689 33.855 40.262 33.855C43.6585 33.855 46.4178 36.6177 46.4178 40.0108C46.4178 43.4073 43.6585 46.1666 40.262 46.1666ZM40.262 36.9346C38.5672 36.9346 37.1858 38.316 37.1858 40.0108C37.1858 41.7091 38.5672 43.0904 40.262 43.0904C41.9603 43.0904 43.3416 41.7091 43.3416 40.0108C43.3416 38.316 41.9603 36.9346 40.262 36.9346Z" fill="#000A60"/>
<mask id="mask0_129_96" style="mask-type:luminance" maskUnits="userSpaceOnUse" x="0" y="0" width="81" height="81">
<path d="M0.250977 0H80.2798V80.0289H0.250977V0Z" fill="white"/>
</mask>
<g mask="url(#mask0_129_96)">
<path d="M40.262 80.0254C18.1982 80.0254 0.250977 62.0747 0.250977 40.011C0.250977 29.2736 4.45015 19.1874 12.0665 11.6192C12.2009 11.4952 14.7535 9.07696 16.2864 7.98153C16.9753 7.48548 17.9364 7.64739 18.4325 8.33978C18.9251 9.03218 18.7632 9.99327 18.0742 10.4859C16.717 11.4539 14.2367 13.8066 14.2126 13.8307C7.20252 20.7926 3.32715 30.0969 3.32715 40.011C3.32715 60.3765 19.8965 76.9458 40.262 76.9458C60.6274 76.9458 77.1968 60.3765 77.1968 40.011C77.1968 19.6455 60.6274 3.07962 40.262 3.07962C39.4111 3.07962 38.7221 2.39067 38.7221 1.53981C38.7221 0.688953 39.4111 0 40.262 0C62.3257 0 80.2729 17.9472 80.2729 40.011C80.2729 62.0747 62.3257 80.0254 40.262 80.0254Z" fill="#000A60"/>
</g>
<path d="M17.1786 23.0831C16.3277 23.0831 15.6388 22.3941 15.6388 21.5467V10.7715H4.86696C4.0161 10.7715 3.32715 10.086 3.32715 9.23512C3.32715 8.38427 4.0161 7.69531 4.86696 7.69531H17.1786C18.0294 7.69531 18.7184 8.38427 18.7184 9.23512V21.5467C18.7184 22.3941 18.0294 23.0831 17.1786 23.0831Z" fill="#000A60"/>
<path d="M40.2621 15.3912C39.4112 15.3912 38.7223 14.7022 38.7223 13.8514V7.69557C38.7223 6.84472 39.4112 6.15576 40.2621 6.15576C41.113 6.15576 41.8019 6.84472 41.8019 7.69557V13.8514C41.8019 14.7022 41.113 15.3912 40.2621 15.3912Z" fill="#000A60"/>
<path d="M40.2621 73.8692C39.4112 73.8692 38.7223 73.1803 38.7223 72.3294V66.1736C38.7223 65.3227 39.4112 64.6338 40.2621 64.6338C41.113 64.6338 41.8019 65.3227 41.8019 66.1736V72.3294C41.8019 73.1803 41.113 73.8692 40.2621 73.8692Z" fill="#000A60"/>
<path d="M40.2621 10.7718C39.4112 10.7718 38.7223 10.0862 38.7223 9.23538V7.69557C38.7223 6.84472 39.4112 6.15576 40.2621 6.15576C41.113 6.15576 41.8019 6.84472 41.8019 7.69557V9.23538C41.8019 10.0862 41.113 10.7718 40.2621 10.7718Z" fill="#000A60"/>
<path d="M40.2621 73.8694C39.4112 73.8694 38.7223 73.1805 38.7223 72.3296V70.7898C38.7223 69.939 39.4112 69.25 40.2621 69.25C41.113 69.25 41.8019 69.939 41.8019 70.7898V72.3296C41.8019 73.1805 41.113 73.8694 40.2621 73.8694Z" fill="#000A60"/>
<path d="M56.4214 69.539C55.8909 69.539 55.3741 69.26 55.0882 68.7674L54.32 67.4343C53.8929 66.7006 54.1444 65.7601 54.8815 65.333C55.6118 64.9058 56.5557 65.1573 56.9863 65.8979L57.7545 67.2311C58.1782 67.9648 57.9267 68.9087 57.1895 69.3324C56.9484 69.4736 56.6832 69.539 56.4214 69.539Z" fill="#000A60"/>
<path d="M68.2474 57.7103C67.9856 57.7103 67.7238 57.6448 67.4826 57.5036L66.1495 56.7354C65.4123 56.3083 65.1574 55.3678 65.5846 54.6307C66.0083 53.8969 66.9487 53.642 67.6859 54.0692L69.019 54.8374C69.7562 55.2645 70.0076 56.2049 69.5839 56.9421C69.298 57.4347 68.7813 57.7103 68.2474 57.7103Z" fill="#000A60"/>
<path d="M9.48304 41.5508H7.94667C7.09581 41.5508 6.40686 40.8618 6.40686 40.011C6.40686 39.1601 7.09581 38.4746 7.94667 38.4746H9.48304C10.3339 38.4746 11.0229 39.1601 11.0229 40.011C11.0229 40.8618 10.3339 41.5508 9.48304 41.5508Z" fill="#000A60"/>
<path d="M72.5807 41.5508H71.0409C70.1901 41.5508 69.5011 40.8618 69.5011 40.011C69.5011 39.1601 70.1901 38.4746 71.0409 38.4746H72.5807C73.4316 38.4746 74.1171 39.1601 74.1171 40.011C74.1171 40.8618 73.4316 41.5508 72.5807 41.5508Z" fill="#000A60"/>
<path d="M12.2767 57.7103C11.7462 57.7103 11.2261 57.4347 10.9436 56.9421C10.5164 56.2049 10.7679 55.2645 11.5051 54.8374L12.8382 54.0692C13.5719 53.642 14.5158 53.8969 14.9395 54.6307C15.3667 55.3678 15.1152 56.3083 14.378 56.7354L13.0449 57.5036C12.8038 57.6448 12.5385 57.7103 12.2767 57.7103Z" fill="#000A60"/>
<path d="M66.9177 26.1627C66.3872 26.1627 65.8705 25.8837 65.5846 25.3911C65.1574 24.6573 65.4123 23.7135 66.1495 23.2898L67.4826 22.5216C68.2129 22.0944 69.1533 22.3459 69.5839 23.0831C70.0076 23.8203 69.7562 24.7607 69.019 25.1878L67.6859 25.956C67.4447 26.0973 67.1795 26.1627 66.9177 26.1627Z" fill="#000A60"/>
<path d="M24.1025 69.5398C23.8407 69.5398 23.5755 69.4743 23.3344 69.3331C22.5972 68.9094 22.3457 67.9655 22.7694 67.2318L23.541 65.8986C23.9648 65.1615 24.9086 64.9065 25.6424 65.3337C26.3795 65.7608 26.631 66.7013 26.2073 67.435L25.4357 68.7681C25.1532 69.2607 24.633 69.5398 24.1025 69.5398Z" fill="#000A60"/>
<path d="M55.6497 14.8953C55.3879 14.8953 55.1227 14.8299 54.8815 14.6921C54.1444 14.2649 53.8929 13.3245 54.32 12.5873L55.0882 11.2542C55.5119 10.5205 56.4524 10.2656 57.1895 10.6927C57.9267 11.1164 58.1782 12.0568 57.7545 12.794L56.9863 14.1271C56.7004 14.6197 56.1837 14.8953 55.6497 14.8953Z" fill="#000A60"/>
<path d="M72.5806 41.5508H66.4248C65.574 41.5508 64.885 40.8618 64.885 40.011C64.885 39.1601 65.574 38.4746 66.4248 38.4746H72.5806C73.4315 38.4746 74.117 39.1601 74.117 40.011C74.117 40.8618 73.4315 41.5508 72.5806 41.5508Z" fill="#000A60"/>
<path d="M14.1025 41.5508H7.94667C7.09581 41.5508 6.40686 40.8618 6.40686 40.011C6.40686 39.1601 7.09581 38.4746 7.94667 38.4746H14.1025C14.9533 38.4746 15.6388 39.1601 15.6388 40.011C15.6388 40.8618 14.9533 41.5508 14.1025 41.5508Z" fill="#000A60"/>
<path d="M36.9998 38.2886C36.6071 38.2886 36.211 38.137 35.9113 37.8373L26.8619 28.7879C26.2625 28.1885 26.2625 27.2136 26.8619 26.6142C27.4647 26.0114 28.4396 26.0114 29.039 26.6142L38.0884 35.6602C38.6878 36.263 38.6878 37.2379 38.0884 37.8373C37.7887 38.137 37.3926 38.2886 36.9998 38.2886Z" fill="#000A60"/>
<path d="M43.5242 38.2886C43.1315 38.2886 42.7388 38.137 42.4356 37.8373C41.8362 37.2379 41.8362 36.2631 42.4356 35.6602L57.6408 20.4585C58.2437 19.8556 59.2151 19.8556 59.8179 20.4585C60.4173 21.0579 60.4173 22.0327 59.8179 22.6321L44.6127 37.8373C44.313 38.137 43.9203 38.2886 43.5242 38.2886Z" fill="#000A60"/>
</svg>
