<svg width="32" height="32" viewBox="0 0 32 32" fill="none" xmlns="http://www.w3.org/2000/svg">
<g filter="url(#filter0_ddi_7_145)">
<mask id="path-1-inside-1_7_145" fill="white">
<path d="M5 7.2C5 4.32812 7.32812 2 10.2 2H21.8C24.6719 2 27 4.32812 27 7.2V18.8C27 21.6719 24.6719 24 21.8 24H10.2C7.32812 24 5 21.6719 5 18.8V7.2Z"/>
</mask>
<path d="M5 7.2C5 4.32812 7.32812 2 10.2 2H21.8C24.6719 2 27 4.32812 27 7.2V18.8C27 21.6719 24.6719 24 21.8 24H10.2C7.32812 24 5 21.6719 5 18.8V7.2Z" fill="#2B79FF"/>
<path d="M5 2H27H5ZM27 18.8C27 22.5003 24.0003 25.5 20.3 25.5H11.7C7.99969 25.5 5 22.5003 5 18.8C5 20.8435 7.32812 22.5 10.2 22.5H21.8C24.6719 22.5 27 20.8435 27 18.8ZM5 24V2V24ZM27 2V24V2Z" fill="#2B79FF" mask="url(#path-1-inside-1_7_145)"/>
</g>
<g filter="url(#filter1_d_7_145)">
<path d="M11 12L13.6149 15.1379C13.9976 15.5971 14.695 15.6202 15.1073 15.1874L21 9" stroke="white" stroke-width="2" stroke-linecap="round" stroke-linejoin="round"/>
</g>
<defs>
<filter id="filter0_ddi_7_145" x="0" y="-0.5" width="32" height="32.5" filterUnits="userSpaceOnUse" color-interpolation-filters="sRGB">
<feFlood flood-opacity="0" result="BackgroundImageFix"/>
<feColorMatrix in="SourceAlpha" type="matrix" values="0 0 0 0 0 0 0 0 0 0 0 0 0 0 0 0 0 0 127 0" result="hardAlpha"/>
<feMorphology radius="1" operator="dilate" in="SourceAlpha" result="effect1_dropShadow_7_145"/>
<feOffset/>
<feComposite in2="hardAlpha" operator="out"/>
<feColorMatrix type="matrix" values="0 0 0 0 0.806057 0 0 0 0 0.861004 0 0 0 0 0.943424 0 0 0 1 0"/>
<feBlend mode="normal" in2="BackgroundImageFix" result="effect1_dropShadow_7_145"/>
<feColorMatrix in="SourceAlpha" type="matrix" values="0 0 0 0 0 0 0 0 0 0 0 0 0 0 0 0 0 0 127 0" result="hardAlpha"/>
<feOffset dy="3"/>
<feGaussianBlur stdDeviation="2.5"/>
<feComposite in2="hardAlpha" operator="out"/>
<feColorMatrix type="matrix" values="0 0 0 0 0 0 0 0 0 0 0 0 0 0 0 0 0 0 0.1 0"/>
<feBlend mode="normal" in2="effect1_dropShadow_7_145" result="effect2_dropShadow_7_145"/>
<feBlend mode="normal" in="SourceGraphic" in2="effect2_dropShadow_7_145" result="shape"/>
<feColorMatrix in="SourceAlpha" type="matrix" values="0 0 0 0 0 0 0 0 0 0 0 0 0 0 0 0 0 0 127 0" result="hardAlpha"/>
<feOffset dy="-2.5"/>
<feGaussianBlur stdDeviation="1.5"/>
<feComposite in2="hardAlpha" operator="arithmetic" k2="-1" k3="1"/>
<feColorMatrix type="matrix" values="0 0 0 0 0.386074 0 0 0 0 0.616964 0 0 0 0 0.918896 0 0 0 1 0"/>
<feBlend mode="normal" in2="shape" result="effect3_innerShadow_7_145"/>
</filter>
<filter id="filter1_d_7_145" x="6" y="6" width="20" height="16.4977" filterUnits="userSpaceOnUse" color-interpolation-filters="sRGB">
<feFlood flood-opacity="0" result="BackgroundImageFix"/>
<feColorMatrix in="SourceAlpha" type="matrix" values="0 0 0 0 0 0 0 0 0 0 0 0 0 0 0 0 0 0 127 0" result="hardAlpha"/>
<feOffset dy="2"/>
<feGaussianBlur stdDeviation="2"/>
<feComposite in2="hardAlpha" operator="out"/>
<feColorMatrix type="matrix" values="0 0 0 0 0 0 0 0 0 0 0 0 0 0 0 0 0 0 0.34 0"/>
<feBlend mode="normal" in2="BackgroundImageFix" result="effect1_dropShadow_7_145"/>
<feBlend mode="normal" in="SourceGraphic" in2="effect1_dropShadow_7_145" result="shape"/>
</filter>
</defs>
</svg>
